# xmcd
#
# Track frame offsets:
#	183
#	19900
#	36978
#	49978
#	66410
#	78595
#	94608
#	125245
#	138620
#	150505
#	163875
#	178983
#
# Disc length: 2561 seconds
#
# Revision: 3
# Processed by: cddbd v1.5.2PL0 Copyright (c) Steve Scherf et al.
# Submitted via: audiograbber 1.83.01
#
DISCID=b209ff0c
DTITLE=Tom Russell - Heart On A Sleeve
DYEAR=1984
DGENRE=Country
TTITLE0=One And One
TTITLE1=Heart On A Sleeve
TTITLE2=Blinded By The Light Of Love
TTITLE3=A Touch Of Grey
TTITLE4=Wild Hearts
TTITLE5=St. Olav's Gate
TTITLE6=Gallo De Cielo
TTITLE7=Mandarin Oranges
TTITLE8=Cropduster
TTITLE9=Canadian Whiskey
TTITLE10=Chinese Silver
TTITLE11=A Bowl Of Red
EXTD=
EXTT0=
EXTT1=
EXTT2=
EXTT3=
EXTT4=
EXTT5=
EXTT6=
EXTT7=
EXTT8=
EXTT9=
EXTT10=
EXTT11=
PLAYORDER=
